<?xml version="1.0" encoding="UTF-8" standalone="no"?>
<svg
   width="13.714286"
   height="13.714286"
   viewBox="0 0 1536 1536"
   version="1.1"
   id="svg186"
   sodipodi:docname="icon-clock.svg"
   inkscape:version="1.2.2 (b0a8486541, 2022-12-01)"
   xmlns:inkscape="http://www.inkscape.org/namespaces/inkscape"
   xmlns:sodipodi="http://sodipodi.sourceforge.net/DTD/sodipodi-0.dtd"
   xmlns:xlink="http://www.w3.org/1999/xlink"
   xmlns="http://www.w3.org/2000/svg"
   xmlns:svg="http://www.w3.org/2000/svg">
  <sodipodi:namedview
     id="namedview188"
     pagecolor="#ffffff"
     bordercolor="#666666"
     borderopacity="1.0"
     inkscape:showpageshadow="2"
     inkscape:pageopacity="0.0"
     inkscape:pagecheckerboard="0"
     inkscape:deskcolor="#d1d1d1"
     showgrid="false"
     inkscape:zoom="29.875"
     inkscape:cx="6.8619247"
     inkscape:cy="14.861925"
     inkscape:window-width="1918"
     inkscape:window-height="1181"
     inkscape:window-x="0"
     inkscape:window-y="17"
     inkscape:window-maximized="1"
     inkscape:current-layer="svg186" />
  <defs
     id="defs180">
    <g
       id="icon">
      <path
         d="m 1024,544 v 448 q 0,14 -9,23 -9,9 -23,9 H 672 q -14,0 -23,-9 -9,-9 -9,-23 v -64 q 0,-14 9,-23 9,-9 23,-9 H 896 V 544 q 0,-14 9,-23 9,-9 23,-9 h 64 q 14,0 23,9 9,9 9,23 z m 416,352 q 0,-148 -73,-273 -73,-125 -198,-198 -125,-73 -273,-73 -148,0 -273,73 -125,73 -198,198 -73,125 -73,273 0,148 73,273 73,125 198,198 125,73 273,73 148,0 273,-73 125,-73 198,-198 73,-125 73,-273 z m 224,0 q 0,209 -103,385.5 Q 1458,1458 1281.5,1561 1105,1664 896,1664 687,1664 510.5,1561 334,1458 231,1281.5 128,1105 128,896 128,687 231,510.5 334,334 510.5,231 687,128 896,128 1105,128 1281.5,231 1458,334 1561,510.5 1664,687 1664,896 Z"
         id="path177" />
    </g>
  </defs>
  <use
     xlink:href="#icon"
     x="0"
     y="0"
     fill="#447e9b"
     id="use182"
     transform="translate(-128,-128)" />
</svg>
